<?xml version="1.0" encoding="utf-8"?>
<!DOCTYPE svg PUBLIC "-//W3C//DTD SVG 1.1//EN" "http://www.w3.org/Graphics/SVG/1.1/DTD/svg11.dtd">
<svg version="1.1" id="Layer_1" xmlns="http://www.w3.org/2000/svg" xmlns:xlink="http://www.w3.org/1999/xlink" x="0px" y="0px"
	 width="2834.65px" height="2834.65px" viewBox="0 0 2834.65 2834.65" enable-background="new 0 0 2834.65 2834.65"
	 xml:space="preserve">
<g>
	<path fill="none" d="M1.453,2834.65c0-944.401,0-1888.799,0-2833.197c944.4,0,1888.796,0,2833.197,0
		c0,944.398,0,1888.796,0,2833.197C1890.249,2834.65,945.854,2834.65,1.453,2834.65z M1236.748,1373.282
		c0,254.688,0,509.086,0,763.899c-189.566,0-377.217,0-567.218,0c4.005-16.219-5.528-29.624-5.514-45.57
		c0.503-423.978,0.4-847.957,0.488-1271.933c0-4.399-1.962-9.417,3.306-14.154c1.02-1.01,3.018-3.018,5.063-5.062
		c33.936,0,67.917,0,99.411,0c14.256,5.636,23.191,14.764,32.276,23.862c132.808,132.94,265.703,265.795,398.579,398.661
		c2.664,2.665,5.03,5.8,8.109,7.868c2.317,1.549,3.002,7.614,7.77,3.969c0-150.222,0-300.099,0-450.941
		c-144.895,0-289.104,0-432.581,0c-42.219-42.244-83.577-83.641-123.35-123.442C474.929,848.594,286.75,1036.784,98.805,1224.72
		c0,305.242,0,611.051,0.082,916.852c0,0.597,1.313,1.195,2.057,1.84c4.302-1.124,9.401,2.221,14.153-3.235
		c0-303.756,0-608.488,0-912.261c133.827-133.834,266.701-266.709,399.576-399.582c5.343-5.343,9.881-12.043,16.167-15.783
		c27.842-16.56,49.102-40.911,68.7-65.086c19.333-23.847,40.393-43.986,62.965-59.947c32.684,32.689,64.177,64.176,96.355,96.362
		c-36.635,0-73.892,0-110.706,0c0,457.819,0,913.644,0,1369.515c202.275,0,403.811,0,604.71,0c0-260.717,0-520.126,0-780.097
		C1247.582,1373.282,1243.139,1373.282,1236.748,1373.282z M2516.342,1695.128c0-80.395,0-158.488,0-236.845
		c-11.119,0-21.233,0-33.198,0c-11.927,24.128-25.356,47.896-39.051,71.51c-13.535,23.34-22.905,49.056-35.642,72.919
		c-3.426,6.42-4.492,15.902-12.838,18.521c-14.259-27.287-28.411-54.449-42.622-81.583c-14.221-27.139-28.498-54.25-43.036-81.943
		c-10.461,0-21.751-0.038-33.042,0.072c-0.717,0.007-1.418,1.071-2.118,1.646c-3.365,65.371-2.139,232.433,0.716,235.266
		c9.282,0,17.563,0,26.5,0c0-32.039-0.324-63.098,0.094-94.141c0.412-30.511-1.756-61.144,1.452-94.386
		c26.914,53.765,52.659,104.437,77.52,155.551c5.106,10.492,11.127,13.583,22.829,9.578c27.258-51.623,54.938-104.052,84.795-160.59
		c0,64.071,0,123.982,0,184.425C2498.905,1695.128,2507.124,1695.128,2516.342,1695.128z M2054.567,1457.81
		c-3.209,5.098-6.139,6.95-7.777,10.7c-18.521,42.324-37.443,84.474-56.53,126.551c-2.9,6.374-9.165,11.686-10.545,18.201
		c-6.191,29.141-25.965,52.606-32.66,81.843c9.698,0,19.804,0,28.389,0c14.336-17.092,13.2-41.021,27.559-54.915
		c44.269,0,86.41,0,127.952,0c14.066,16.941,16.9,37.846,25.414,54.538c11.261,0,21.416,0,33.426,0
		c-35.902-80.033-71.102-158.509-106.263-236.918C2074.15,1457.81,2064.738,1457.81,2054.567,1457.81z M2794.414,2144.334
		c-506.106,0-1011.632,0-1516.493,0c-1.961,3.602-2.004,6.162,0.092,9.363c505.059,0,1010.587,0,1516.403,0
		C2794.414,2150.149,2794.414,2147.595,2794.414,2144.334z M1423.666,1452.09c-11.142,9.329-24.696,4.14-36.311,6.761
		c-24.678,6.913-40.496,22.669-46.989,47.159c-7.956,26.99,6.272,45.941,26.187,61.077c9.496,7.224,21.023,12.124,33.103,15.583
		c16.767,4.796,33.921,8.907,49.595,16.884c12.971,6.595,23.744,15.429,25.451,31.377c-13.527,31.323-20.769,35.728-52.133,36.635
		c-26.351,0.762-49.066-8.44-69.586-23.369c-5.991-4.361-10.994-5.836-17.651-4.663c0.053,7.535-9.134,11.282-7.865,19.953
		c8.958,5.438,15.295,14.122,25.115,20.188c24.846,15.371,51.036,16.418,78.473,16.279c15.817-0.073,30.134-4.436,43.318-11.814
		c17.423-9.763,29.716-23.679,28.744-45.653c-0.465-10.317-0.088-20.661-0.088-28.327c-10.841-22.883-25.768-36.351-49.325-40.809
		c-15.265-2.892-29.479-10.913-44.599-15.067c-15.906-4.375-26.48-14.913-36.007-25.989c0-8.324,0-15.754,0-21.598
		c6.787-11.1,17.384-14.846,26.487-20.633c16.05,0,32.928-3.092,47.899,0.9c13.886,3.705,28.713,7.838,40.77,17.835
		c3.808-9.867,10.655-16.742,9.009-27.155C1478.108,1454.696,1447.486,1462.996,1423.666,1452.09z M1758.875,1458.274
		c0,80.3,0,158.296,0,236.092c43.693,0,86.527,0,128.586,0c0-9.592,0-17.834,0-26.629c-34.266-1.426-67.822,1.143-101.95-1.426
		c0-70.344,0-138.919,0-208.028C1776.446,1458.274,1768.23,1458.274,1758.875,1458.274z M1638.078,1695.172
		c0-79.2,0-157.883,0-236.927c-11.065,0-21.168,0-32.065,0c0,79.207,0,157.888,0,236.927
		C1617.063,1695.172,1627.173,1695.172,1638.078,1695.172z M2589.438,1803.058c-5.658,1.323-10.64-1.667-15.532,3.183
		c0.529,32.474-0.74,65.85,0.869,101.012c6.509-3.541,11.69,0.494,16.221-4.738c0-10.47-0.252-21.687,0.072-32.88
		c0.311-10.693-1.554-21.652,2.066-34.033c10.304,20.875,19.563,39.647,28.809,58.391c3.909,0,7.659,0,11.621,0
		c9.321-18.611,18.691-37.323,28.062-56.059c1.22,0.289,2.428,0.567,3.632,0.856c0,22.146,0,44.295,0,66.455
		c6.406-0.48,11.126,1.689,15.04-1.388c0-33.611,0-67.002,0-100.473c-7.682,0.568-14.266-1.749-19.129,1.004
		c-11.409,22.986-22.246,44.85-33.104,66.721C2615.141,1848.315,2602.179,1825.514,2589.438,1803.058z M2032.195,1973.464
		c-16.987,20.101-21.282,47.883-38.998,68.153c-11.58-23.296-22.803-45.882-33.968-68.337c-6.714,1.024-13.475-2.28-20.262,2.98
		c1.792,32.6-1.622,65.968,1.895,100.533c6.12-2.873,11.299,0.833,14.987-3.712c1.985-23.629-1.521-47.492,3.364-71.156
		c3.67,23.648,21.149,40.562,27.082,62.094c5.076,0,8.825,0,13.295,0c5.096-18.816,21.313-31.854,26.965-50.908
		c13.741,19.12,6.714,41.891,10.368,62.479c4.443-0.504,7.534,0.789,10.171-3.771c-0.85-31.893,1.38-65.253-1.272-98.341
		C2040.114,1973.464,2036.387,1973.464,2032.195,1973.464z M1458.232,1829.351c15.959,22.794,19.766,49.345,40.206,67.319
		c16.824-20.744,23.511-44.238,39.051-69.961c0,30.285,0,54.295,0,78.83c4.523-0.501,7.084-0.789,9.652-1.068
		c0-34.026,0-67.402,0-100.918c-4.946,0-8.657,0-12.503,0c-14.308,19.282-24.06,41.516-35.365,64.663
		c-18.905-19.834-27.43-42.657-38.146-64.301c-4.424-0.486-8.932-1.733-13.611,0.878c0,33.287,0,66.654,0,100.553
		c3.734-0.338,6.288-0.574,10.708-0.98C1458.232,1879.994,1458.232,1855.975,1458.232,1829.351z M1840.666,2074.808
		c-12.651-10.863-21.888-19.112-24.662-33.021c5.061-4.634,10.575-9.674,15.791-14.441c-0.88-7.099,0.03-13.037,4.68-17.319
		c-7.374-9.289-5.343-22.527-13.719-31.012c-18.139-6.834-34.938-7.646-69.311-3.396c0,32.711-0.008,65.34,0.087,97.979
		c0.008,0.574,1.315,1.157,2.065,1.8c4.265-1.129,9.328,2.206,14.058-3.188c0-7.231,0-15.421,0-24.396c10.959,0,21.046,0,31.339,0
		c0.236,11.387,15.178,14.826,15.733,26.994C1822.984,2074.808,1829.288,2074.808,1840.666,2074.808z M2222.677,2074.771
		c0-24.21,0-48.28,0-77.31c21.842,29.021,40.557,53.859,58.908,78.232c5.715-1.247,10.845,1.793,14.758-3.182
		c0-31.752,0.005-63.791-0.067-95.854c-0.009-0.717-0.954-1.543-1.632-2.11c-0.654-0.537-1.543-0.805-2.324-1.195
		c-8.345,7.032-12.792,14.523-12.926,23.147c-0.201,14.817-0.061,29.635-0.061,50.325c-20.802-27.663-37.904-50.42-55.364-73.627
		c-3.528,1.416-8.715-2.008-11.791,1.971c0,33.498,0,66.271,0,99.602C2215.578,2074.771,2218.131,2074.771,2222.677,2074.771z
		 M2406.245,1973.094c-9.793,18.189-26.319,35.072-48.089,49.588c0-16.457,0-32.262,0-47.729c-6.288-1.733-11.6-3.602-15.556,0.311
		c0,33.576,0,66.359,0,99.588c5.373,0,9.823,0,15.277,0c0-8.647,0-16.912,0-22.195c8.108-8.973,14.328-15.844,20.127-22.264
		c11.363,15.739,20.89,32.165,34.734,45.175c4.877-2.038,12.3,3.925,14.625-8.575c-17.599-11.113-24.506-33.161-41.314-46.289
		c15.154-15.156,28.872-28.867,42.907-42.909C2420.493,1970.844,2413.63,1974.489,2406.245,1973.094z M1830.701,1881.742
		c7.869-8.242,14.316-14.994,20.635-21.619c10.795,16.698,21.759,32.845,34.806,45.956c6.425-1.733,12.499,2.235,13.939-8.155
		c-15.144-14.322-28.012-32.674-41.433-50.679c13.821-13.819,26.407-26.543,39.196-39.034c1.954-1.91,2.374-2.752-0.977-4.464
		c-2.926,0-6.604,0-11.725,0c-15.685,15.686-32.291,32.298-48.905,48.893c-0.579,0.574-1.36,1.418-2.001,1.374
		c-3.765-0.224,1.112-4.059-2.99-1.257c0-16.439,0-32.23,0-47.659c-6.258-2.017-11.509-3.595-15.716,0.302
		c0,33.324,0,66.088,0,99.396c5.267,0,9.71,0,15.155,0C1830.701,1896.404,1830.701,1888.133,1830.701,1881.742z M1453.648,1973.353
		c-44.097,0-44.097,0-69.501,25.405c4.02,9.89-6.517,16.087-6.326,25.811c0.191,9.581,10.125,15.854,6.437,25.498
		c31.521,31.521,56.66,34.953,90.452,11.502c0-5.541,0.428-12.013-0.125-18.389c-0.541-6.248,2.839-13.119-2.458-18.722
		c-4.538,0.702-9.393-1.895-14.419,2.584c0,9.254,0,19.362,0,29.045c-31.236,13.022-33.819,12.206-61.865-18.418
		c0-9.823,0-19.121,0-24.247c8.234-9.527,14.327-16.56,20.336-23.503c9.15,5.053,13.349-6.043,20.75-5.364
		c7.91,8.927,21.297,3.239,28.114,13.297c3.438-5.276,8.456-6.745,8.36-12.565
		C1467.439,1981.692,1461.357,1978.015,1453.648,1973.353z M1676.23,1904.366c7.683,0,12.121,0,17.243,0
		c3.315-6.611,7.168-14.271,10.78-21.474c17.624,0,34.481,0,50.399,0c9.99,4.622,8.288,14.051,10.448,21.481
		c5.674,0.657,11.188,3.455,15.741-2.155c-9.366-34.651-31.914-63.755-40.902-98.126c-5.541-0.723-10.034-1.854-16.714,1.727
		C1705.378,1835.299,1695.562,1870.778,1676.23,1904.366z M1611.146,2075.067c-1.933-5.551-4.943-7.328-6.44-10.922
		c-10.59-25.636-23.317-50.436-32.764-76.438c-4.478-12.332-10.079-16.021-21.427-13.639c-14.725,31.85-29.273,63.337-43.856,94.809
		c-0.892,1.932-5.335,2.995-1.578,5.769c4.737,0,9.149,0,12.435,0c9.062-5.83,7.93-17.783,15.018-20.928c19.686,0,37.248,0,53.718,0
		c3.822,8.193,7.054,15.112,9.954,21.35C1601.097,2075.067,1604.77,2075.067,1611.146,2075.067z M2144.925,1804.52
		c-12.316,27.319-24.151,55.335-37.687,82.506c-3.761,7.564-4.413,12.426-0.957,18.624c16.115-1.099,12.476-18.586,21.245-22.056
		c19.3,0,36.916,0,54.285,0c2.6,12.81,4.146,17.776,8.178,20.026c4.896,2.753,10.27,3.219,15.223-0.508
		c-1.756-2.975-4.198-5.682-5.071-8.825c-6.993-25.281-23.333-46.54-30.337-72.064
		C2167.503,1813.834,2163.94,1799.104,2144.925,1804.52z M2535.06,2050.464c-12.263,8.974-22.083,15.889-34.681,13.307
		c-5.8-1.174-11.055-5.049-17.147-7.979c1.813-5.283-1.979-8.249-6.318-12.205c0-22.505,0-45.816,0-69.665c-3.498,0-6.052,0-9.599,0
		c0,27.311,0,54.384,0,82.218c5.734,5.815,12.331,12.507,18.919,19.215c13.193,0,26.39,0,36.484,0
		c16.801-6.213,27.58-15.74,28.32-31.346c1.097-23.245,0.285-46.585,0.285-70.063c-6.463,0-10.891,0-16.264,0
		C2535.06,1999.676,2535.06,2024.868,2535.06,2050.464z M2293.462,1815.441c-19.559,33.347-48.957,55.794-66.49,88.675
		c32.458,0,62.079,0,91.561,0c0.343-3.889,1.445-6.693-3.528-10.833c-19.7,0-41.856,0-65.806,0
		c25.207-25.17,40.332-55.041,64.457-75.864c-0.371-5.563-0.614-9.143-0.851-12.823c-26.772,0-52.62,0-78.322,0
		c-0.34,3.896-1.445,6.692,3.543,10.846C2253.95,1815.441,2272.337,1815.441,2293.462,1815.441z M1344.969,1813.701
		c19.953,0,37.642,0,54.618,0c1.867-3.615,1.974-6.175-0.049-9.165c-21.778,0-43.898,0-65.733,0c0,33.951,0,66.73,0,99.491
		c22.897,0,45.019,0,67.158,0c-0.194-3.983,1.216-6.958-3.269-9.997c-7.77,0-17.098,0.278-26.381-0.082
		c-9.016-0.354-18.391,1.867-25.839-1.15c0-11.97,0-22.102,0-32.772c16.091,0,31.117,0.098,46.116-0.154
		c1.284-0.016,2.526-2.198,3.78-3.38c0.015-2.767,0.354-5.65-4.146-8.463c-14.141,0-29.917,0-46.254,0
		C1344.969,1836.93,1344.969,1826.82,1344.969,1813.701z M2099.019,1973.936c0,35.043,0,67.842,0,101.418
		c21.644,0,42.313,0.06,62.975-0.148c1.355-0.007,2.679-2.051,4.027-3.15c-0.133-2.715,0.663-5.703-4.059-8.529
		c-15.939,0-33.633,0-51.283,0c0-11.843,0-22.625,0-34.335c17.141,0,32.939,0,49.172,0c0-3.558,0-6.119,0-10.671
		c-16.896,0-33.441,0-49.835,0c0-12.13,0-22.24,0-34.327c19,0,37.394,0,55.665,0c0.119-4.665,1.372-7.511-2.111-10.257
		C2142.909,1973.936,2121.467,1973.936,2099.019,1973.936z M1683.489,2075.354c0-14.442,0-29.021,0-40.77
		c17.407-18.936,22.67-40.835,37.485-60.293c-7.953,0-12.419,0-18.048,0c-3.795,7.43-5.128,17.687-12.779,24.454
		c-7.66,6.759-8.7,17.178-14.271,25.767c-14.846-14.632-20.219-35.396-33.103-50.753c-4.958-0.016-9.58-1.756-14.979,1.939
		c15.901,19.718,22.859,44.828,41.014,65.808c0,10.228,0,22.107,0,33.841C1674.017,2075.354,1677.777,2075.354,1683.489,2075.354z
		 M2040.815,1876.135c14.194-25.392,26.88-48.073,40.182-71.879c-5.399,0-9.857,0-13.894,0
		c-9.88,14.846-19.943,30.011-31.974,48.095c-12.705-16.239-19.64-33.439-31.263-48.252c-3.56,0.305-9.29-3.976-12.575,1.588
		c6.677,13.002,11.684,26.433,19.77,37.649c12.529,17.392,21.759,35.064,19.096,57.209c-0.168,1.409,1.581,3.032,2.449,4.565
		c2.656,0.016,5.549,1.301,8.193-2.293C2040.815,1894.389,2040.815,1885.116,2040.815,1876.135z M2613.574,2063.894
		c0-30.484,0-60.104,0-90.009c-6.288,0-10.716,0-15.96,0c0,33.876,0,67.215,0,101.469c19.621,0,38.289,0.072,56.981-0.126
		c1.466-0.016,2.929-1.809,4.42-2.789c-0.4-2.612,1.166-5.749-3.742-8.545C2643.121,2063.894,2629.262,2063.894,2613.574,2063.894z
		 M1922.16,1921.146c14.617-2.833,14.729-2.79,17.171-10.138c12.468-37.257,20.764-75.975,39.363-111.129
		c1.653-3.122,2.21-9.231-2.279-13.378c-8.867-0.642-12.109,5.092-14.477,12.588c-4.736,14.993-10.029,29.819-14.899,44.785
		C1938.755,1869.376,1930.601,1894.937,1922.16,1921.146z M2528.228,1802.787c-6.795,1.579-11.775-1.402-16.565,3.365
		c0.022,32.563-0.022,65.918,0.031,99.868c7.209-1.675,12.175,1.312,16.534-3.026
		C2528.228,1870.703,2528.228,1838.03,2528.228,1802.787z M1600.3,1803.871c0,33.835,0,67.172,0,100.074c19.244,0,37.542,0,55.979,0
		c-0.629-4.027,0.986-7.164-5.632-11.016c-11.063,0-25.585,0-40.873,0c0-30.851,0-59.74,0-89.059
		C1606.29,1803.871,1603.745,1803.871,1600.3,1803.871z M2421.998,1803.937c0,33.59,0,66.929,0,100.098c18.996,0,37.28,0,55.575,0
		c-0.165-3.978,1.199-6.922-4.524-10.899c-11.706,0-26.277,0-41.546,0c0-30.845,0-59.748,0-89.198
		C2428.096,1803.937,2425.543,1803.937,2421.998,1803.937z M2359.61,1803.871c0,33.797,0,67.135,0,100.983c3.431,0,5.976,0,9.458,0
		c0-33.805,0-67.135,0-100.983C2365.64,1803.871,2363.095,1803.871,2359.61,1803.871z M1893.063,2074.011c0-32.896,0-66.25,0-98.755
		c-3.312-2.604-5.865-2.118-9.409-0.552c0,32.902,0,66.247,0,98.743C1886.977,2076.048,1889.529,2075.584,1893.063,2074.011z
		 M1893.564,1942.966c-6.691,3.735-11.755-0.271-15.657,3.912c-0.525,5.252-3.254,10.729,2.516,15.577
		c3.764-2.096,8.825,1.903,13.142-2.715C1893.564,1955.719,1893.564,1951.326,1893.564,1942.966z"/>
	<path fill="#EDCA4D" d="M1236.748,1373.282c6.391,0,10.834,0,16.123,0c0,259.971,0,519.38,0,780.097c-200.9,0-402.432,0-604.71,0
		c0-455.869,0-911.695,0-1369.512c36.814,0,74.078,0,110.706,0c-32.186-32.188-63.679-63.676-96.355-96.363
		c-22.572,15.953-43.632,36.091-62.965,59.947c-19.606,24.172-40.857,48.517-68.708,65.083c-6.285,3.74-10.824,10.448-16.159,15.783
		C381.806,961.194,248.939,1094.059,115.104,1227.9c0,303.774,0,608.505,0,912.266c-4.751,5.453-9.843,2.103-14.153,3.231
		c-0.752-0.646-2.052-1.23-2.052-1.838c-0.095-305.804-0.087-611.605-0.087-916.853c187.943-187.938,376.125-376.118,564.29-564.283
		c39.766,39.802,81.124,81.198,123.341,123.445c143.478,0,287.679,0,432.582,0c0,150.842,0,300.717,0,450.94
		c-4.759,3.645-5.453-2.421-7.777-3.97c-3.071-2.064-5.438-5.202-8.102-7.867c-132.876-132.866-265.779-265.725-398.579-398.658
		c-9.085-9.099-18.014-18.227-32.276-23.865c-31.495,0-65.483,0-99.419,0c-2.044,2.045-4.043,4.051-5.047,5.063
		c-5.276,4.737-3.314,9.755-3.314,14.152c-0.095,423.978,0.008,847.956-0.479,1271.933c-0.016,15.955,9.511,29.36,5.504,45.57
		c190.011,0,377.646,0,567.228,0C1236.748,1882.369,1236.748,1627.97,1236.748,1373.282z M1201.729,1198.902
		c0-134.329,0-265.985,0-397.605c-107.741-4.126-367.122-2.472-394.254,3.344C939.386,936.553,1069.642,1066.81,1201.729,1198.902z"
		/>
	<path fill="#EDCA4D" d="M2516.342,1695.128c-9.218,0-17.437,0-27.642,0c0-60.442,0-120.354,0-184.425
		c-29.85,56.531-57.537,108.967-84.795,160.59c-11.702,4.005-17.723,0.914-22.829-9.578c-24.86-51.114-50.605-101.786-77.52-155.551
		c-3.216,33.242-1.052,63.866-1.452,94.386c-0.418,31.043-0.094,62.095-0.094,94.141c-8.938,0-17.202,0-26.5,0
		c-2.854-2.833-4.081-169.886-0.716-235.266c0.708-0.574,1.409-1.639,2.118-1.646c11.291-0.11,22.581-0.081,33.042-0.081
		c14.554,27.702,28.815,54.813,43.036,81.952c14.211,27.134,28.363,54.296,42.622,81.583c8.346-2.627,9.412-12.11,12.838-18.521
		c12.736-23.863,22.106-49.588,35.642-72.919c13.694-23.613,27.124-47.382,39.051-71.51c11.965,0,22.079,0,33.198,0
		C2516.342,1536.648,2516.342,1614.739,2516.342,1695.128z"/>
	<path fill="#EDCA4D" d="M2054.567,1457.81c10.171,0,19.576,0,28.957,0c35.168,78.416,70.367,156.892,106.255,236.911
		c-12.011,0-22.159,0-33.411,0c-8.514-16.692-11.348-37.59-25.414-54.531c-41.551,0-83.684,0-127.952,0
		c-14.366,13.895-13.223,37.823-27.565,54.906c-8.589,0-18.699,0-28.382,0c6.695-29.234,26.461-52.693,32.646-81.841
		c1.388-6.509,7.651-11.82,10.552-18.203c19.095-42.068,38.018-84.218,56.522-126.551
		C2048.413,1464.76,2051.358,1462.908,2054.567,1457.81z M2121.024,1609.868c-18.211-40.163-35.85-79.072-54.18-119.486
		c-13.607,29.959-26.856,57.467-38.494,85.634c-4.413,10.677-13.646,21.251-8.479,33.853
		C2054.065,1609.868,2086.802,1609.868,2121.024,1609.868z"/>
	<path fill="#EDCA4D" d="M2794.414,2144.334c0,3.271,0,5.823,0,9.363c-505.813,0-1011.35,0-1516.416,0
		c-2.081-3.201-2.042-5.769-0.088-9.363C1782.782,2144.334,2288.308,2144.334,2794.414,2144.334z"/>
	<path fill="#EDCA4D" d="M1423.666,1452.09c23.82,10.9,54.442,2.606,73.613,25.547c1.647,10.413-5.201,17.288-9.008,27.155
		c-12.061-9.999-26.884-14.131-40.77-17.842c-14.979-3.986-31.857-0.9-47.899-0.9c-9.104,5.801-19.701,9.547-26.488,20.64
		c0,5.835,0,13.28,0,21.598c9.523,11.083,20.086,21.614,36.007,25.989c15.12,4.146,29.343,12.174,44.6,15.066
		c23.554,4.466,38.491,17.925,49.325,40.808c0,7.668-0.377,18.011,0.088,28.327c0.971,21.983-11.321,35.892-28.744,45.654
		c-13.185,7.387-27.509,11.749-43.323,11.815c-27.433,0.139-53.631-0.91-78.468-16.279c-9.813-6.066-16.161-14.751-25.116-20.188
		c-1.285-8.664,7.914-12.42,7.865-19.953c6.662-1.173,11.661,0.302,17.651,4.662c20.521,14.929,43.235,24.124,69.582,23.371
		c31.369-0.909,38.609-5.306,52.142-36.645c-1.719-15.939-12.484-24.771-25.456-31.37c-15.673-7.99-32.835-12.092-49.594-16.882
		c-12.081-3.461-23.607-8.361-33.103-15.584c-19.918-15.135-34.151-34.084-26.19-61.076c6.497-24.49,22.315-40.246,46.992-47.161
		C1398.97,1456.229,1412.524,1461.426,1423.666,1452.09z"/>
	<path fill="#EDCA4D" d="M1758.875,1458.274c9.355,0,17.571,0,26.625,0c0,69.111,0,137.693,0,208.029
		c34.139,2.576,67.68,0,101.945,1.434c0,8.779,0,17.037,0,26.622c-42.043,0-84.877,0-128.578,0
		C1758.875,1616.57,1758.875,1538.574,1758.875,1458.274z"/>
	<path fill="#EDCA4D" d="M1638.078,1695.172c-10.905,0-21,0-32.065,0c0-79.045,0-157.72,0-236.927c10.897,0,21,0,32.065,0
		C1638.078,1537.298,1638.078,1615.971,1638.078,1695.172z"/>
	<path fill="#EDCA4D" d="M2589.438,1803.058c12.757,22.465,25.703,45.257,38.643,68.058c10.849-21.878,21.694-43.734,33.095-66.719
		c4.879-2.754,11.456-0.438,19.134-1.013c0,33.478,0,66.868,0,100.48c-3.926,3.069-8.646,0.892-15.036,1.387
		c0-22.167,0-44.31,0-66.455c-1.213-0.287-2.419-0.567-3.632-0.854c-9.37,18.727-18.741,37.445-28.069,56.057
		c-3.956,0-7.713,0-11.615,0c-9.26-18.734-18.519-37.515-28.815-58.391c-3.624,12.382-1.756,23.342-2.058,34.033
		c-0.324,11.187-0.079,22.41-0.079,32.88c-4.53,5.232-9.707,1.195-16.214,4.738c-1.609-35.169-0.34-68.545-0.871-101.012
		C2578.798,1801.391,2583.779,1804.373,2589.438,1803.058z"/>
	<path fill="#EDCA4D" d="M2032.195,1973.464c4.191,0,7.919,0,13.635,0c2.655,33.088,0.43,66.448,1.269,98.341
		c-2.633,4.567-5.724,3.263-10.167,3.771c-3.646-20.586,3.372-43.351-10.361-62.486c-5.65,19.061-21.884,32.093-26.972,50.91
		c-4.462,0-8.227,0-13.287,0c-5.948-21.527-23.42-38.438-27.082-62.089c-4.893,23.664-1.395,47.527-3.365,71.156
		c-3.695,4.546-8.882,0.842-14.994,3.712c-3.517-34.557-0.103-67.925-1.895-100.54c6.787-5.245,13.547-1.946,20.27-2.974
		c11.165,22.455,22.38,45.041,33.96,68.337C2010.913,2021.346,2015.208,1993.564,2032.195,1973.464z"/>
	<path fill="#EDCA4D" d="M1458.232,1829.351c0,26.624,0,50.643,0,75.015c-4.42,0.406-6.974,0.643-10.708,0.98
		c0-33.891,0-67.259,0-100.553c4.676-2.627,9.184-1.373,13.611-0.878c10.716,21.636,19.24,44.467,38.145,64.301
		c11.303-23.141,21.058-45.381,35.366-64.663c3.853,0,7.563,0,12.511,0c0,33.531,0,66.9,0,100.918
		c-2.584,0.279-5.145,0.56-9.66,1.068c0-24.535,0-48.545,0-78.83c-15.535,25.723-22.228,49.217-39.051,69.961
		C1477.998,1878.696,1474.191,1852.145,1458.232,1829.351z"/>
	<path fill="#EDCA4D" d="M1840.666,2074.808c-11.378,0-17.682,0-23.923,0c-0.564-12.168-15.513-15.607-15.734-26.994
		c-10.3,0-20.387,0-31.346,0c0,8.975,0,17.164,0,24.396c-4.729,5.395-9.793,2.054-14.065,3.188c-0.75-0.643-2.05-1.226-2.058-1.8
		c-0.095-32.631-0.087-65.269-0.087-97.979c34.371-4.251,51.172-3.438,69.311,3.396c8.384,8.478,6.353,21.723,13.723,31.012
		c-4.653,4.282-5.563,10.221-4.684,17.319c-5.209,4.768-10.724,9.808-15.784,14.441
		C1818.778,2055.696,1828.015,2063.952,1840.666,2074.808z M1769.827,2030.26c18.447-1.018,35.255,3.188,50.071-8.16
		c0-7.791,0-15.93,0-23.428c-14.027-16.929-31.979-14.191-50.071-13.69C1769.827,2000.597,1769.827,2014.344,1769.827,2030.26z"/>
	<path fill="#EDCA4D" d="M2222.677,2074.771c-4.546,0-7.099,0-10.49,0c0-33.315,0-66.104,0-99.602
		c3.067-3.972,8.261-0.555,11.789-1.971c17.469,23.214,34.563,45.964,55.365,73.635c0-20.698-0.157-35.516,0.063-50.333
		c0.126-8.633,4.577-16.129,12.915-23.147c0.789,0.391,1.67,0.658,2.333,1.195c0.678,0.567,1.623,1.409,1.63,2.11
		c0.072,32.047,0.065,64.095,0.065,95.854c-3.925,4.975-9.032,1.935-14.756,3.182c-18.352-24.382-37.058-49.219-58.907-78.232
		C2222.677,2026.491,2222.677,2050.546,2222.677,2074.771z"/>
	<path fill="#EDCA4D" d="M2406.245,1973.094c7.4,1.402,14.248-2.25,22.703,4.693c-14.033,14.036-27.748,27.744-42.907,42.909
		c16.802,13.128,23.711,35.178,41.315,46.289c-2.324,12.493-9.747,6.537-14.625,8.573c-13.844-13.017-23.375-29.435-34.727-45.174
		c-5.807,6.428-12.026,13.299-20.143,22.263c0,5.276,0,13.55,0,22.195c-5.445,0-9.896,0-15.27,0c0-33.22,0-66.003,0-99.587
		c3.948-3.91,9.275-2.043,15.563-0.309c0,15.473,0,31.277,0,47.727C2379.926,2008.16,2396.452,1991.284,2406.245,1973.094z"/>
	<path fill="#EDCA4D" d="M1830.701,1881.742c0,6.399,0,14.662,0,23.053c-5.438,0-9.881,0-15.155,0c0-33.308,0-66.071,0-99.396
		c4.207-3.896,9.459-2.318,15.716-0.302c0,15.429,0,31.22,0,47.659c4.104-2.802-0.781,1.033,2.999,1.257
		c0.632,0.044,1.413-0.791,1.992-1.374c16.614-16.588,33.21-33.214,48.906-48.893c5.121,0,8.795,0,11.732,0
		c3.342,1.712,2.923,2.554,0.977,4.464c-12.797,12.485-25.379,25.215-39.208,39.034c13.425,18.005,26.293,36.365,41.437,50.679
		c-1.434,10.391-7.507,6.43-13.933,8.155c-13.062-13.111-24.028-29.258-34.81-45.956
		C1845.018,1866.742,1838.57,1873.5,1830.701,1881.742z"/>
	<path fill="#EDCA4D" d="M1453.648,1973.353c7.709,4.662,13.783,8.346,19.754,11.939c0.096,5.83-4.923,7.283-8.36,12.566
		c-6.81-10.058-20.204-4.368-28.114-13.297c-7.393-0.678-11.585,10.419-20.75,5.366c-6.009,6.943-12.102,13.981-20.336,23.494
		c0,5.135,0,14.433,0,24.247c28.046,30.63,30.629,31.435,61.865,18.426c0-9.683,0-19.793,0-29.044
		c5.034-4.487,9.889-1.884,14.419-2.593c5.297,5.603,1.917,12.474,2.458,18.73c0.553,6.374,0.125,12.839,0.125,18.388
		c-33.796,23.45-58.93,20.012-90.452-11.504c3.696-9.643-6.239-15.916-6.437-25.495c-0.19-9.725,10.346-15.923,6.326-25.812
		C1409.552,1973.353,1409.552,1973.353,1453.648,1973.353z"/>
	<path fill="#EDCA4D" d="M1676.23,1904.366c19.339-33.572,29.147-69.067,46.996-98.547c6.68-3.585,11.173-2.442,16.714-1.727
		c8.988,34.371,31.536,63.475,40.902,98.135c-4.554,5.602-10.067,2.804-15.741,2.146c-2.16-7.424-0.458-16.853-10.448-21.481
		c-15.91,0-32.775,0-50.399,0c-3.612,7.202-7.458,14.862-10.78,21.474C1688.352,1904.366,1683.905,1904.366,1676.23,1904.366z
		 M1753.692,1865.007c-11.333-13.63-12.674-29.724-25.203-41.551c-8.628,14.071-11.676,27.671-16.027,41.551
		C1726.996,1865.007,1738.961,1865.007,1753.692,1865.007z"/>
	<path fill="#EDCA4D" d="M1611.146,2075.067c-6.376,0-10.049,0-14.919,0c-2.915-6.229-6.146-13.156-9.954-21.342
		c-16.48,0-34.04,0-53.729,0c-7.085,3.121-5.953,15.09-15.007,20.92c-3.3,0-7.712,0-12.441,0c-3.757-2.767,0.686-3.837,1.578-5.769
		c14.582-31.472,29.131-62.959,43.852-94.809c11.352-2.382,16.95,1.307,21.432,13.639c9.442,26.012,22.182,50.81,32.771,76.438
		C1606.202,2067.739,1609.213,2069.509,1611.146,2075.067z M1535.931,2034.504c14.355,1.676,27.578,1.846,42.984-0.31
		c-8.014-15.992-14.965-29.931-21.977-43.935C1547.496,2003.297,1548.145,2020.814,1535.931,2034.504z"/>
	<path fill="#EDCA4D" d="M2144.925,1804.52c19.029-5.416,22.578,9.313,24.872,17.703c6.997,25.524,23.335,46.783,30.328,72.064
		c0.873,3.144,3.315,5.851,5.08,8.825c-4.946,3.727-10.319,3.261-15.231,0.508c-4.027-2.257-5.578-7.217-8.17-20.026
		c-17.368,0-34.984,0-54.286,0c-8.761,3.47-5.137,20.949-21.243,22.056c-3.452-6.198-2.813-11.06,0.952-18.624
		C2120.773,1859.855,2132.608,1831.84,2144.925,1804.52z M2173.516,1864.55c-7.685-15.82-14.453-29.76-22.208-45.72
		c-6.855,16.935-12.591,31.073-18.508,45.72C2145.979,1864.55,2158.566,1864.55,2173.516,1864.55z"/>
	<path fill="#EDCA4D" d="M2535.06,2050.464c0-25.596,0-50.788,0-76.527c5.373,0,9.816,0,16.271,0c0,23.479,0.804,46.82-0.286,70.063
		c-0.738,15.607-11.526,25.142-28.32,31.348c-10.095,0-23.291,0-36.476-0.009c-6.597-6.698-13.2-13.393-18.927-19.207
		c0-27.835,0-54.908,0-82.218c3.539,0,6.093,0,9.591,0c0,23.841,0,47.152,0,69.666c4.355,3.955,8.147,6.922,6.326,12.205
		c6.094,2.928,11.349,6.796,17.146,7.985C2512.977,2066.344,2522.797,2059.43,2535.06,2050.464z"/>
	<path fill="#EDCA4D" d="M2293.462,1815.441c-21.125,0-39.512,0-55.437,0c-4.988-4.147-3.883-6.95-3.543-10.846
		c25.702,0,51.55,0,78.322,0c0.236,3.681,0.479,7.26,0.851,12.823c-24.125,20.823-39.25,50.694-64.457,75.864
		c23.949,0,46.105,0,65.806,0c4.974,4.14,3.864,6.944,3.528,10.833c-29.481,0-59.103,0-91.561,0
		C2244.519,1871.235,2273.903,1848.788,2293.462,1815.441z"/>
	<path fill="#EDCA4D" d="M1344.969,1813.701c0,13.119,0,23.229,0,34.327c16.336,0,32.127,0,46.257,0
		c4.512,2.813,4.173,5.696,4.157,8.463c-1.253,1.182-2.511,3.364-3.78,3.38c-15.014,0.245-30.04,0.154-46.124,0.154
		c0,10.671,0,20.795,0,32.772c7.442,3.018,16.816,0.797,25.84,1.15c9.29,0.36,18.611,0.082,26.381,0.082
		c4.485,3.039,3.082,6.014,3.269,9.997c-22.147,0-44.268,0-67.158,0c0-32.761,0-65.54,0-99.491c21.842,0,43.947,0,65.733,0
		c2.031,2.99,1.917,5.55,0.049,9.165C1382.611,1813.701,1364.907,1813.701,1344.969,1813.701z"/>
	<path fill="#EDCA4D" d="M2099.019,1973.936c22.455,0,43.898,0,64.551,0c3.483,2.746,2.23,5.592,2.111,10.257
		c-18.271,0-36.674,0-55.665,0c0,12.087,0,22.197,0,34.327c16.394,0,32.933,0,49.835,0c0,4.561,0,7.113,0,10.671
		c-16.225,0-32.031,0-49.172,0c0,11.71,0,22.492,0,34.335c17.65,0,35.344,0,51.283,0c4.722,2.826,3.933,5.814,4.059,8.535
		c-1.349,1.094-2.672,3.138-4.027,3.145c-20.661,0.199-41.331,0.148-62.975,0.148
		C2099.019,2041.771,2099.019,2008.986,2099.019,1973.936z"/>
	<path fill="#EDCA4D" d="M1683.489,2075.354c-5.728,0-9.488,0-14.682,0c0-11.74,0-23.62,0-33.841
		c-18.154-20.979-25.104-46.09-41.014-65.808c5.407-3.695,10.021-1.962,14.972-1.939c12.892,15.355,18.265,36.121,33.11,50.755
		c5.563-8.585,6.611-19.003,14.271-25.768c7.659-6.769,8.984-17.023,12.779-24.455c5.629,0,10.088,0,18.048,0
		c-14.815,19.451-20.078,41.358-37.485,60.293C1683.489,2046.333,1683.489,2060.912,1683.489,2075.354z"/>
	<path fill="#EDCA4D" d="M2040.815,1876.135c0,8.981,0,18.255,0,26.698c-2.652,3.593-5.545,2.309-8.209,2.286
		c-0.853-1.526-2.617-3.156-2.441-4.567c2.662-22.151-6.566-39.824-19.096-57.21c-8.082-11.215-13.101-24.653-19.77-37.648
		c3.292-5.562,9.016-1.283,12.574-1.586c11.623,14.811,18.559,32.004,31.256,48.252c12.045-18.101,22.115-33.249,31.982-48.097
		c4.035,0,8.494,0,13.894,0C2067.687,1828.061,2055.01,1850.743,2040.815,1876.135z"/>
	<path fill="#EDCA4D" d="M2613.574,2063.894c15.688,0,29.547,0,41.699,0c4.908,2.796,3.349,5.933,3.733,8.552
		c-1.482,0.974-2.945,2.767-4.411,2.782c-18.692,0.186-37.36,0.126-56.981,0.126c0-34.261,0-67.585,0-101.469
		c5.244,0,9.672,0,15.96,0C2613.574,2003.791,2613.574,2033.41,2613.574,2063.894z"/>
	<path fill="#EDCA4D" d="M1922.16,1921.146c8.44-26.217,16.587-51.779,24.895-77.28c4.862-14.957,10.155-29.783,14.892-44.783
		c2.359-7.498,5.605-13.23,14.477-12.588c4.489,4.153,3.94,10.256,2.279,13.379c-18.6,35.152-26.896,73.87-39.364,111.127
		C1936.889,1918.356,1936.777,1918.313,1922.16,1921.146z"/>
	<path fill="#EDCA4D" d="M2528.228,1802.787c0,35.228,0,67.909,0,100.207c-4.359,4.338-9.325,1.359-16.534,3.026
		c-0.054-33.959-0.009-67.306-0.031-99.868C2516.46,1801.391,2521.433,1804.373,2528.228,1802.787z"/>
	<path fill="#EDCA4D" d="M1600.3,1803.871c3.445,0,5.99,0,9.474,0c0,29.318,0,58.208,0,89.059c15.288,0,29.811,0,40.873,0
		c6.618,3.852,5.003,6.988,5.632,11.016c-18.437,0-36.734,0-55.979,0C1600.3,1871.043,1600.3,1837.706,1600.3,1803.871z"/>
	<path fill="#EDCA4D" d="M2421.998,1803.937c3.545,0,6.098,0,9.505,0c0,29.442,0,58.362,0,89.207c15.269,0,29.84,0,41.546,0
		c5.724,3.969,4.353,6.922,4.524,10.891c-18.295,0-36.579,0-55.575,0C2421.998,1870.866,2421.998,1837.527,2421.998,1803.937z"/>
	<path fill="#EDCA4D" d="M2359.61,1803.871c3.484,0,6.029,0,9.458,0c0,33.849,0,67.188,0,100.983c-3.482,0-6.027,0-9.458,0
		C2359.61,1871.006,2359.61,1837.668,2359.61,1803.871z"/>
	<path fill="#EDCA4D" d="M1893.063,2074.011c-3.533,1.572-6.086,2.052-9.409-0.563c0-32.503,0-65.841,0-98.743
		c3.544-1.566,6.098-2.052,9.409,0.552C1893.063,2007.761,1893.063,2041.1,1893.063,2074.011z"/>
	<path fill="#EDCA4D" d="M1893.564,1942.966c0,8.354,0,12.753,0,16.768c-4.316,4.618-9.378,0.619-13.142,2.715
		c-5.77-4.849-3.041-10.318-2.516-15.579C1881.81,1942.694,1886.873,1946.701,1893.564,1942.966z"/>
	<path fill="none" d="M1201.729,1198.902C1069.642,1066.81,939.386,936.553,807.474,804.64c27.132-5.816,286.513-7.47,394.254-3.344
		C1201.729,932.908,1201.729,1064.573,1201.729,1198.902z"/>
	<path fill="none" d="M2121.024,1609.868c-34.211,0-66.959,0-101.152,0c-5.168-12.608,4.065-23.176,8.479-33.853
		c11.638-28.167,24.887-55.675,38.494-85.634C2085.175,1530.796,2102.813,1569.705,2121.024,1609.868z"/>
	<path fill="none" d="M1769.827,2030.26c0-15.901,0-29.662,0-45.27c18.092-0.502,36.044-3.247,50.071,13.688
		c0,7.491,0,15.63,0,23.428C1805.082,2033.448,1788.289,2029.242,1769.827,2030.26z"/>
	<path fill="none" d="M1753.692,1865.007c-14.729,0-26.689,0-41.23,0c4.352-13.88,7.399-27.479,16.027-41.551
		C1741.019,1835.283,1742.359,1851.377,1753.692,1865.007z"/>
	<path fill="none" d="M1535.931,2034.504c12.214-13.695,11.565-31.214,20.992-44.244c7.021,14.004,13.979,27.942,21.977,43.935
		C1563.509,2036.356,1550.286,2036.179,1535.931,2034.504z"/>
	<path fill="none" d="M2173.516,1864.55c-14.949,0-27.536,0-40.731,0c5.933-14.646,11.66-28.785,18.508-45.72
		C2159.063,1834.79,2165.831,1848.729,2173.516,1864.55z"/>
</g>
</svg>